<svg width="312" height="120" viewBox="0 0 312 120" fill="none" xmlns="http://www.w3.org/2000/svg">
<path d="M261.019 25C261.019 23.7276 262.023 22.7252 263.269 22.4696C273.416 20.3889 281.407 12.3972 283.488 2.25051C283.744 1.00403 284.746 0 286.019 0C287.291 0 288.293 1.00403 288.549 2.25051C290.63 12.3972 298.621 20.3889 308.768 22.4696C310.015 22.7252 311.019 23.7276 311.019 25C311.019 26.2724 310.015 27.2748 308.768 27.5304C298.621 29.6111 290.63 37.6028 288.549 47.7495C288.293 48.996 287.291 50 286.019 50C284.746 50 283.744 48.996 283.488 47.7495C281.407 37.6028 273.416 29.6111 263.269 27.5304C262.023 27.2748 261.019 26.2724 261.019 25Z" fill="white"/>
<path d="M42.84 120.164C21.4729 120.164 6.98133 104.191 6.98133 82.0836C6.98133 60.2934 21.896 43.7921 42.84 43.7921C59.0239 43.7921 72.2462 53.4178 75.1022 68.0152H64.4186C61.0337 58.3894 53.1004 53.4178 42.84 53.4178C27.3964 53.4178 17.6649 64.6303 17.6649 81.9778C17.6649 98.1618 26.656 110.538 42.84 110.538C52.9946 110.538 61.2453 105.884 64.5244 95.9405H75.2079C72.4577 110.749 59.2355 120.164 42.84 120.164Z" fill="white"/>
<path d="M83.9333 119V42.8401H93.9822V119H83.9333Z" fill="white"/>
<path d="M120.79 120.164C110.53 120.164 103.76 113.923 103.76 104.72C103.76 93.7191 113.386 87.584 130.416 86.4205L136.34 85.9974V84.3049C136.34 78.064 132.637 74.1503 126.185 74.1503C120.579 74.1503 116.348 77.0063 115.396 82.0836H104.924C105.558 72.1405 114.444 64.9476 126.185 64.9476C138.455 64.9476 146.388 72.6694 146.388 84.728V107.576C146.388 110.432 147.869 111.913 150.408 111.913C151.043 111.913 151.36 111.807 152.206 111.596L153.158 119C151.677 119.529 149.668 119.846 147.975 119.846C142.369 119.846 138.455 116.567 137.609 111.596H136.974C133.272 117.308 127.772 120.164 120.79 120.164ZM114.232 104.403C114.232 108.316 116.876 110.961 121.848 110.961C130.099 110.961 136.34 104.297 136.34 94.5654V93.7191L129.781 94.248C120.156 94.9885 114.232 98.4791 114.232 104.403Z" fill="white"/>
<path d="M158.933 119V66.1112H167.819L168.348 73.0925H168.982C171.838 68.3325 177.656 65.4765 184.532 65.4765C185.801 65.4765 186.964 65.5823 187.811 65.7938V75.9485C186.436 75.7369 185.801 75.7369 184.426 75.7369C174.588 75.7369 168.982 82.2951 168.982 93.8249V119H158.933Z" fill="white"/>
<path d="M195.933 119V66.1112H205.982V119H195.933ZM194.347 52.2543C194.347 48.3405 197.308 45.5903 200.905 45.5903C204.501 45.5903 207.569 48.3405 207.569 52.2543C207.569 56.0623 204.501 58.8125 200.905 58.8125C197.308 58.8125 194.347 56.0623 194.347 52.2543Z" fill="white"/>
<path d="M239.195 120.164C229.569 120.164 223.011 114.875 223.011 104.614V75.1023H212.75V66.1112H214.866C220.895 66.1112 223.434 62.8321 223.857 55.9565L224.174 50.6676H233.06V66.1112H245.541V75.1023H233.06V103.874C233.06 108.316 236.021 111.172 240.252 111.172C241.733 111.172 243.426 110.855 244.801 110.432L246.388 118.788C244.378 119.635 242.156 120.164 239.195 120.164Z" fill="white"/>
<path d="M253.933 119V66.1112H263.982V119H253.933ZM252.347 52.2543C252.347 48.3405 255.308 45.5903 258.905 45.5903C262.501 45.5903 265.569 48.3405 265.569 52.2543C265.569 56.0623 262.501 58.8125 258.905 58.8125C255.308 58.8125 252.347 56.0623 252.347 52.2543Z" fill="white"/>
</svg>
