<svg width="305" height="120" viewBox="0 0 305 120" fill="none" xmlns="http://www.w3.org/2000/svg">
<path d="M36.84 119.54C15.4729 119.54 0.981323 103.567 0.981323 81.4596C0.981323 59.6694 15.896 43.1681 36.84 43.1681C53.0239 43.1681 66.2462 52.7938 69.1021 67.3912H58.4186C55.0337 57.7654 47.1004 52.7938 36.84 52.7938C21.3964 52.7938 11.6649 64.0063 11.6649 81.3538C11.6649 97.5378 20.656 109.914 36.84 109.914C46.9946 109.914 55.2453 105.26 58.5244 95.3165H69.2079C66.4577 110.125 53.2355 119.54 36.84 119.54Z" fill="#18191B"/>
<path d="M78.2998 118.376V42.2161H88.3487V118.376H78.2998Z" fill="#18191B"/>
<path d="M114.808 119.54C104.548 119.54 97.7778 113.299 97.7778 104.096C97.7778 93.0951 107.404 86.96 124.434 85.7965L130.357 85.3734V83.6809C130.357 77.44 126.655 73.5263 120.203 73.5263C114.596 73.5263 110.365 76.3823 109.413 81.4596H98.9414C99.576 71.5165 108.461 64.3236 120.203 64.3236C132.473 64.3236 140.406 72.0454 140.406 84.104V106.952C140.406 109.808 141.887 111.289 144.426 111.289C145.06 111.289 145.378 111.183 146.224 110.972L147.176 118.376C145.695 118.905 143.685 119.222 141.993 119.222C136.387 119.222 132.473 115.943 131.627 110.972H130.992C127.29 116.684 121.789 119.54 114.808 119.54ZM108.25 103.779C108.25 107.692 110.894 110.337 115.866 110.337C124.116 110.337 130.357 103.673 130.357 93.9414V93.0951L123.799 93.624C114.173 94.3645 108.25 97.8551 108.25 103.779Z" fill="#18191B"/>
<path d="M153.352 118.376V65.4872H162.238L162.767 72.4685H163.401C166.257 67.7085 172.075 64.8525 178.951 64.8525C180.22 64.8525 181.384 64.9583 182.23 65.1698V75.3245C180.855 75.1129 180.22 75.1129 178.845 75.1129C169.008 75.1129 163.401 81.6711 163.401 93.2009V118.376H153.352Z" fill="#18191B"/>
<path d="M189.639 118.376V65.4872H199.688V118.376H189.639ZM188.052 51.6303C188.052 47.7165 191.014 44.9663 194.611 44.9663C198.207 44.9663 201.275 47.7165 201.275 51.6303C201.275 55.4383 198.207 58.1885 194.611 58.1885C191.014 58.1885 188.052 55.4383 188.052 51.6303Z" fill="#18191B"/>
<path d="M233.552 119.54C223.926 119.54 217.368 114.251 217.368 103.99V74.4783H207.107V65.4872H209.223C215.252 65.4872 217.791 62.208 218.214 55.3325L218.531 50.0436H227.417V65.4872H239.898V74.4783H227.417V103.25C227.417 107.692 230.378 110.548 234.61 110.548C236.09 110.548 237.783 110.231 239.158 109.808L240.745 118.164C238.735 119.011 236.514 119.54 233.552 119.54Z" fill="#18191B"/>
<path d="M248.061 118.376V65.4872H258.109V118.376H248.061ZM246.474 51.6303C246.474 47.7165 249.436 44.9663 253.032 44.9663C256.629 44.9663 259.696 47.7165 259.696 51.6303C259.696 55.4383 256.629 58.1885 253.032 58.1885C249.436 58.1885 246.474 55.4383 246.474 51.6303Z" fill="#18191B"/>
<path d="M279.645 0C280.899 0 281.887 0.989751 282.139 2.2185C284.19 12.2209 292.068 20.099 302.071 22.1501C303.299 22.4021 304.289 23.3902 304.289 24.6445C304.289 25.8988 303.299 26.887 302.071 27.1389C292.068 29.1901 284.19 37.0682 282.139 47.0705C281.887 48.2993 280.899 49.289 279.645 49.289C278.39 49.289 277.402 48.2993 277.15 47.0705C275.099 37.0682 267.221 29.1901 257.219 27.1389C255.99 26.887 255 25.8988 255 24.6445C255 23.3902 255.99 22.4021 257.219 22.1501C267.221 20.099 275.099 12.2209 277.15 2.21852C277.402 0.989757 278.39 0 279.645 0Z" fill="#18191B"/>
</svg>
